<svg xmlns="http://www.w3.org/2000/svg" xmlns:xlink="http://www.w3.org/1999/xlink" width="500" zoomAndPan="magnify" viewBox="0 0 375 374.999991" height="500" preserveAspectRatio="xMidYMid meet" version="1.0"><defs><g/></defs><g fill="#610f7f" fill-opacity="1"><g transform="translate(81.189209, 293.761176)"><g><path d="M 1.5 7.351562 C 1.898438 7.351562 2.292969 7.191406 2.609375 6.875 C 3.003906 6.558594 3.320312 6.242188 3.554688 5.847656 C 3.792969 5.453125 4.03125 4.980469 4.269531 4.585938 C 4.980469 3.398438 5.613281 2.132812 6.242188 0.871094 C 6.875 -0.394531 7.507812 -1.660156 8.140625 -2.925781 C 9.640625 -5.769531 12.722656 -11.855469 15.175781 -16.28125 C 16.675781 -18.890625 18.257812 -21.578125 19.917969 -24.34375 C 23.316406 -29.796875 26.792969 -34.773438 30.269531 -38.410156 C 32.007812 -40.230469 33.667969 -41.492188 35.171875 -42.285156 C 35.722656 -42.601562 36.199219 -42.757812 36.59375 -42.757812 C 37.382812 -42.757812 37.859375 -42.125 38.09375 -40.859375 C 38.332031 -39.832031 38.332031 -38.726562 38.171875 -37.460938 C 36.910156 -28.53125 32.5625 -18.414062 24.738281 -13.355469 C 23.867188 -12.804688 23 -12.25 21.972656 -12.011719 C 20.945312 -12.011719 20.234375 -12.25 20.234375 -13.4375 C 20.3125 -15.253906 20.863281 -16.835938 22.445312 -17.863281 C 22.761719 -18.097656 23.078125 -18.257812 23.394531 -18.492188 C 23.710938 -18.730469 24.027344 -18.96875 24.34375 -19.207031 C 24.738281 -19.523438 24.816406 -19.917969 24.5 -20.390625 C 24.421875 -20.628906 24.105469 -20.785156 23.710938 -20.785156 L 23.394531 -20.785156 C 23.316406 -20.785156 23.234375 -20.785156 23.15625 -20.707031 C 21.890625 -20.074219 20.707031 -19.441406 19.835938 -18.257812 C 18.414062 -16.597656 17.941406 -14.699219 18.335938 -12.488281 C 18.574219 -10.828125 19.601562 -9.957031 21.417969 -9.957031 C 25.371094 -9.957031 30.746094 -15.332031 32.957031 -18.414062 C 36.988281 -24.027344 39.199219 -30.113281 40.148438 -36.832031 C 40.230469 -37.382812 40.308594 -37.9375 40.308594 -38.488281 C 40.230469 -39.042969 40.230469 -39.597656 40.230469 -40.148438 C 40.308594 -41.019531 39.992188 -41.808594 39.675781 -42.679688 C 39.042969 -44.101562 38.015625 -44.8125 36.671875 -44.8125 C 36.433594 -44.8125 36.039062 -44.734375 35.488281 -44.65625 C 32.246094 -43.785156 28.375 -39.753906 24.34375 -34.460938 C 22.367188 -31.773438 20.390625 -28.847656 18.414062 -25.6875 C 14.542969 -19.285156 10.984375 -12.960938 8.140625 -7.429688 C 6.71875 -4.664062 5.53125 -2.292969 4.664062 -0.472656 C 4.109375 0.554688 3.636719 1.5 3.082031 2.449219 C 3.003906 2.6875 2.84375 2.84375 2.6875 2.84375 C 2.609375 2.84375 2.527344 2.84375 2.449219 2.765625 C 2.371094 2.6875 2.292969 2.527344 2.292969 2.132812 C 2.292969 1.738281 2.292969 1.5 2.371094 1.34375 C 3.082031 -5.613281 4.820312 -13.039062 7.035156 -20.3125 C 9.246094 -27.503906 11.933594 -34.617188 14.699219 -40.941406 C 15.015625 -41.652344 15.332031 -42.441406 15.648438 -43.152344 C 15.964844 -43.863281 16.28125 -44.574219 16.519531 -45.285156 C 16.675781 -45.683594 16.753906 -46.078125 16.753906 -46.472656 C 16.753906 -47.027344 16.359375 -47.261719 15.808594 -47.261719 C 15.648438 -47.261719 15.492188 -47.183594 15.410156 -47.105469 C 15.09375 -46.550781 14.78125 -46.078125 14.464844 -45.523438 C 11.222656 -38.253906 7.824219 -29.875 5.214844 -21.339844 C 2.609375 -12.804688 0.632812 -4.03125 0 4.109375 C 0.078125 4.347656 0.078125 4.664062 0.078125 5.058594 C 0 5.453125 0.078125 5.769531 0.15625 6.164062 C 0.394531 6.953125 0.871094 7.351562 1.5 7.351562 Z M 1.5 7.351562 "/></g></g></g><g fill="#610f7f" fill-opacity="1"><g transform="translate(119.046852, 293.761176)"><g><path d="M 3.398438 -2.84375 C 5.53125 -2.84375 7.667969 -4.503906 9.167969 -5.847656 C 12.644531 -8.773438 15.410156 -12.25 18.179688 -15.808594 C 18.414062 -16.042969 18.574219 -16.28125 18.652344 -16.675781 C 18.730469 -17.070312 18.652344 -17.386719 18.335938 -17.625 C 18.179688 -17.78125 18.019531 -17.863281 17.78125 -17.863281 C 17.625 -17.863281 17.464844 -17.78125 17.386719 -17.703125 C 16.992188 -17.386719 16.597656 -17.070312 16.28125 -16.675781 C 15.648438 -15.964844 15.015625 -15.175781 14.464844 -14.464844 C 13.910156 -13.753906 13.277344 -12.960938 12.644531 -12.25 C 10.828125 -10.117188 8.929688 -8.296875 6.796875 -6.480469 C 5.847656 -5.769531 4.980469 -5.214844 3.792969 -4.980469 C 2.925781 -4.980469 2.449219 -5.058594 2.214844 -5.925781 C 2.054688 -6.640625 1.976562 -7.351562 2.054688 -7.984375 C 2.527344 -11.695312 3.714844 -15.648438 5.058594 -19.125 C 5.136719 -19.523438 5.058594 -19.835938 4.664062 -19.996094 C 4.425781 -20.074219 4.269531 -20.152344 4.109375 -20.152344 C 3.953125 -20.152344 3.714844 -20.074219 3.476562 -19.917969 C 1.421875 -17.863281 0.554688 -11.460938 0 -7.984375 C 0 -6.796875 0 -6.007812 0.316406 -5.136719 C 0.871094 -3.636719 1.898438 -2.84375 3.398438 -2.84375 Z M 5.453125 -23 C 6.324219 -23 7.113281 -23.789062 7.113281 -24.660156 C 7.035156 -25.527344 6.480469 -25.921875 5.53125 -25.921875 C 4.585938 -25.921875 4.109375 -25.449219 4.109375 -24.5 C 4.1875 -23.550781 4.742188 -22.921875 5.453125 -23 Z M 5.453125 -23 "/></g></g></g><g fill="#610f7f" fill-opacity="1"><g transform="translate(133.747322, 293.761176)"><g><path d="M -0.394531 -0.789062 C -0.078125 -0.789062 0.15625 -0.871094 0.394531 -1.027344 C 0.871094 -1.421875 1.265625 -1.816406 1.5 -2.371094 C 1.738281 -2.84375 1.976562 -3.320312 2.214844 -3.792969 C 4.664062 -8.773438 7.667969 -13.515625 11.777344 -17.230469 C 11.933594 -17.386719 12.09375 -17.464844 12.328125 -17.464844 C 12.566406 -17.464844 12.804688 -17.230469 12.882812 -16.835938 C 12.960938 -16.042969 13.121094 -15.253906 13.199219 -14.542969 C 13.277344 -13.753906 13.355469 -12.960938 13.4375 -12.171875 C 13.515625 -11.222656 13.753906 -10.273438 14.304688 -9.246094 C 14.9375 -8.140625 15.808594 -7.585938 16.835938 -7.585938 C 16.914062 -7.585938 17.070312 -7.585938 17.230469 -7.667969 C 17.308594 -7.667969 17.464844 -7.667969 17.546875 -7.667969 C 18.730469 -7.902344 19.757812 -8.457031 20.707031 -9.324219 C 21.578125 -10.117188 26.238281 -14.304688 27.109375 -15.175781 C 27.425781 -15.492188 27.660156 -15.886719 27.820312 -16.28125 C 27.976562 -16.675781 27.898438 -17.070312 27.503906 -17.386719 C 27.347656 -17.546875 27.1875 -17.625 26.949219 -17.625 C 26.714844 -17.625 26.554688 -17.546875 26.398438 -17.386719 C 26.238281 -17.308594 26.082031 -17.070312 25.84375 -16.835938 C 25.605469 -16.597656 25.054688 -16.042969 24.183594 -15.332031 C 23.472656 -14.699219 22.761719 -14.066406 22.128906 -13.4375 C 21.417969 -12.722656 20.785156 -12.09375 20.074219 -11.460938 C 19.207031 -10.75 18.414062 -10.117188 17.464844 -9.800781 C 17.386719 -9.800781 17.308594 -9.800781 17.308594 -9.800781 C 17.230469 -9.722656 17.152344 -9.722656 17.070312 -9.722656 C 16.597656 -9.722656 16.28125 -9.957031 16.125 -10.355469 C 15.726562 -11.066406 15.492188 -11.855469 15.410156 -12.804688 C 15.332031 -13.4375 15.253906 -14.066406 15.253906 -14.699219 C 15.175781 -15.332031 15.09375 -15.964844 15.015625 -16.675781 C 14.78125 -18.019531 14.542969 -19.917969 12.722656 -19.917969 C 9.640625 -19.917969 3.554688 -10.828125 2.214844 -8.140625 C 1.976562 -8.695312 1.898438 -9.167969 2.132812 -9.640625 C 2.292969 -10.117188 2.449219 -10.589844 2.609375 -11.066406 C 3.398438 -13.039062 4.1875 -15.09375 4.980469 -17.152344 C 5.691406 -19.125 6.480469 -21.179688 7.269531 -23.15625 L 7.746094 -24.105469 C 7.984375 -24.660156 7.902344 -25.132812 7.351562 -25.449219 C 7.113281 -25.527344 6.953125 -25.605469 6.875 -25.605469 C 6.007812 -25.605469 5.296875 -23.472656 4.820312 -22.761719 C 4.109375 -20.785156 3.320312 -18.808594 2.609375 -16.835938 C 1.898438 -14.859375 1.105469 -12.882812 0.394531 -10.90625 C -0.472656 -8.296875 -1.265625 -5.691406 -1.582031 -2.925781 C -1.582031 -2.449219 -1.582031 -2.132812 -1.5 -1.898438 C -1.421875 -1.183594 -1.027344 -0.789062 -0.394531 -0.789062 Z M -0.394531 -0.789062 "/></g></g></g><g fill="#610f7f" fill-opacity="1"><g transform="translate(157.694859, 293.761176)"><g/></g></g><g fill="#610f7f" fill-opacity="1"><g transform="translate(187.728056, 293.761176)"><g><path d="M 10.984375 1.5 C 16.4375 1.5 24.660156 -3.160156 28.53125 -6.640625 C 31.613281 -9.246094 34.300781 -12.25 36.910156 -15.332031 C 36.988281 -15.492188 37.144531 -15.648438 37.226562 -15.808594 C 37.304688 -15.886719 37.460938 -16.042969 37.542969 -16.203125 C 37.777344 -16.675781 37.777344 -17.070312 37.382812 -17.386719 C 37.226562 -17.546875 36.988281 -17.625 36.75 -17.625 C 36.59375 -17.625 36.433594 -17.546875 36.199219 -17.464844 C 35.960938 -17.230469 35.644531 -16.914062 35.40625 -16.675781 C 35.171875 -16.359375 34.855469 -16.042969 34.617188 -15.808594 C 29.085938 -9.246094 23.316406 -4.109375 15.175781 -1.34375 C 13.671875 -0.789062 12.328125 -0.554688 11.144531 -0.554688 C 7.746094 -0.632812 5.136719 -1.898438 3.554688 -4.980469 C 2.054688 -7.746094 1.738281 -10.589844 2.054688 -13.515625 C 3.554688 -26.238281 9.167969 -39.121094 20.628906 -45.367188 C 22.128906 -46.078125 23.550781 -46.628906 24.976562 -47.027344 C 25.527344 -47.105469 25.921875 -47.183594 26.320312 -47.183594 C 28.292969 -47.183594 29.320312 -46 29.480469 -43.628906 C 29.636719 -42.601562 29.558594 -41.492188 29.164062 -40.308594 C 27.976562 -35.882812 24.816406 -31.375 22.050781 -27.820312 C 21.65625 -27.425781 21.578125 -27.109375 21.734375 -26.714844 C 21.8125 -26.554688 22.050781 -26.476562 22.289062 -26.476562 C 22.839844 -26.476562 23.316406 -26.871094 23.632812 -27.425781 C 26.792969 -31.457031 30.03125 -35.722656 31.21875 -40.78125 C 31.613281 -42.285156 31.613281 -43.628906 31.296875 -44.890625 C 30.664062 -48.054688 29.003906 -49.238281 25.84375 -49.238281 C 18.808594 -48.449219 11.222656 -41.808594 7.585938 -35.882812 C 3.953125 -30.347656 0 -19.363281 0 -12.644531 C -0.078125 -8.773438 0.554688 -5.691406 2.371094 -2.925781 C 4.269531 0.15625 7.507812 1.5 10.984375 1.5 Z M 10.984375 1.5 "/></g></g></g><g fill="#610f7f" fill-opacity="1"><g transform="translate(221.475898, 293.761176)"><g><path d="M -0.238281 1.34375 C 0.238281 1.34375 0.632812 1.105469 0.871094 0.710938 C 1.421875 -0.15625 1.898438 -0.871094 2.292969 -1.738281 C 3.003906 -3.082031 3.636719 -4.347656 4.269531 -5.613281 C 4.820312 -6.875 5.453125 -8.140625 6.085938 -9.40625 C 7.035156 -11.222656 8.140625 -12.960938 9.640625 -14.464844 C 9.957031 -14.859375 10.273438 -15.253906 10.984375 -15.253906 C 11.222656 -14.9375 11.382812 -14.621094 11.539062 -14.304688 C 11.695312 -13.988281 11.933594 -13.671875 12.171875 -13.355469 C 13.039062 -12.171875 14.066406 -11.617188 15.410156 -11.617188 C 17.625 -11.617188 20.945312 -14.226562 22.445312 -15.726562 C 22.683594 -15.964844 22.921875 -16.28125 23.15625 -16.753906 C 23.316406 -17.070312 23.234375 -17.386719 22.921875 -17.703125 C 22.683594 -17.863281 22.523438 -17.941406 22.289062 -17.941406 C 22.128906 -17.941406 22.050781 -17.941406 21.972656 -17.863281 C 21.578125 -17.625 21.261719 -17.386719 20.945312 -17.070312 C 19.601562 -15.964844 16.835938 -13.671875 15.410156 -13.671875 C 14.699219 -13.671875 14.066406 -14.148438 13.515625 -15.09375 C 13.355469 -15.332031 13.199219 -15.648438 13.121094 -16.042969 C 12.960938 -16.359375 12.804688 -16.675781 12.644531 -16.914062 C 12.25 -17.546875 11.777344 -17.863281 11.144531 -17.863281 C 10.828125 -17.863281 10.511719 -17.78125 10.195312 -17.625 C 7.746094 -16.125 5.847656 -13.4375 4.585938 -10.984375 L 1.5 -4.742188 L 1.421875 -4.820312 L 1.5 -4.820312 C 1.105469 -5.691406 1.34375 -6.480469 1.582031 -7.351562 C 2.214844 -9.722656 3.082031 -12.171875 4.109375 -14.621094 C 4.820312 -16.203125 5.53125 -17.78125 6.164062 -19.363281 C 6.402344 -19.996094 6.558594 -20.550781 6.558594 -21.101562 C 6.640625 -21.496094 6.480469 -21.734375 6.007812 -21.890625 L 5.769531 -21.890625 C 5.453125 -21.890625 5.214844 -21.8125 5.058594 -21.65625 C 4.820312 -21.339844 4.664062 -20.945312 4.425781 -20.550781 C 1.660156 -14.226562 -0.554688 -9.011719 -1.582031 -1.976562 C -1.660156 -1.582031 -1.660156 -1.265625 -1.660156 -0.949219 C -1.582031 -0.554688 -1.582031 -0.238281 -1.582031 0.078125 C -1.5 0.710938 -1.183594 1.105469 -0.632812 1.265625 C -0.554688 1.265625 -0.472656 1.265625 -0.472656 1.34375 C -0.394531 1.34375 -0.316406 1.34375 -0.238281 1.34375 Z M -0.238281 1.34375 "/></g></g></g><g fill="#610f7f" fill-opacity="1"><g transform="translate(240.760368, 293.761176)"><g><path d="M 0.394531 -6.796875 C 1.421875 -6.796875 2.765625 -7.902344 3.476562 -8.535156 C 5.453125 -10.355469 7.191406 -12.25 9.011719 -14.382812 C 9.246094 -14.621094 9.5625 -14.9375 9.800781 -15.253906 C 10.039062 -15.570312 10.433594 -15.808594 10.984375 -16.042969 C 10.433594 -13.910156 9.957031 -11.855469 9.957031 -9.722656 C 9.957031 -8.21875 10.589844 -7.429688 11.933594 -7.429688 C 12.25 -7.429688 12.488281 -7.429688 12.644531 -7.507812 C 15.964844 -8.0625 21.578125 -13.355469 23.867188 -15.648438 C 23.949219 -15.726562 24.105469 -15.886719 24.183594 -15.964844 C 24.261719 -16.042969 24.261719 -16.125 24.34375 -16.203125 C 24.5 -16.753906 24.421875 -17.152344 24.027344 -17.386719 C 23.867188 -17.546875 23.710938 -17.625 23.472656 -17.625 C 23.394531 -17.625 23.316406 -17.546875 23.078125 -17.464844 C 22.839844 -17.308594 22.605469 -17.152344 22.445312 -16.992188 C 22.207031 -16.753906 21.972656 -16.597656 21.734375 -16.359375 C 21.023438 -15.808594 20.390625 -15.253906 19.835938 -14.699219 C 19.207031 -14.148438 18.574219 -13.515625 17.863281 -12.960938 C 16.914062 -12.09375 15.886719 -11.460938 14.9375 -10.828125 C 14.226562 -10.433594 13.515625 -10.117188 12.804688 -9.800781 C 12.722656 -9.722656 12.644531 -9.722656 12.488281 -9.722656 C 12.171875 -9.722656 12.011719 -9.957031 12.011719 -10.433594 C 12.011719 -13.832031 14.464844 -19.601562 15.964844 -22.605469 C 16.125 -23 16.28125 -23.316406 16.519531 -23.710938 C 16.675781 -24.027344 16.835938 -24.34375 16.992188 -24.738281 C 17.230469 -25.449219 17.152344 -26.003906 16.597656 -26.320312 C 16.359375 -26.398438 16.203125 -26.476562 16.125 -26.476562 C 15.886719 -26.476562 15.570312 -26.320312 15.175781 -25.921875 C 14.9375 -25.6875 14.78125 -25.371094 14.621094 -25.132812 C 14.382812 -24.816406 14.226562 -24.5 13.988281 -24.261719 C 13.515625 -23.632812 13.039062 -23 12.644531 -22.367188 C 12.171875 -21.734375 11.695312 -21.101562 11.222656 -20.550781 C 10.90625 -20.152344 10.667969 -19.917969 10.511719 -19.917969 C 10.433594 -19.917969 10.195312 -20.074219 9.800781 -20.3125 C 9.011719 -20.945312 8.21875 -21.261719 7.429688 -21.261719 C 6.558594 -21.261719 5.691406 -20.945312 4.820312 -20.234375 C 4.269531 -19.835938 3.871094 -19.523438 3.636719 -19.207031 C 1.265625 -16.835938 -1.34375 -12.171875 -1.34375 -8.695312 C -1.265625 -7.429688 -0.632812 -6.796875 0.394531 -6.796875 Z M 1.105469 -9.640625 C 1.105469 -9.722656 1.105469 -9.722656 1.027344 -9.722656 L 0.949219 -9.800781 C 1.582031 -13.199219 3.160156 -16.042969 5.613281 -18.179688 C 6.007812 -18.574219 6.953125 -19.125 7.507812 -19.125 C 7.902344 -19.125 8.21875 -18.96875 8.613281 -18.730469 C 9.011719 -18.492188 9.089844 -18.097656 8.929688 -17.625 C 8.851562 -17.386719 8.695312 -17.308594 8.613281 -17.230469 C 6.480469 -14.621094 4.347656 -12.011719 1.816406 -9.878906 C 1.660156 -9.722656 1.421875 -9.640625 1.105469 -9.640625 Z M 1.105469 -9.640625 "/></g></g></g><g fill="#610f7f" fill-opacity="1"><g transform="translate(261.230359, 293.761176)"><g><path d="M 1.265625 21.496094 C 3.398438 21.496094 4.898438 17.464844 5.136719 15.410156 C 5.375 14.304688 5.53125 13.199219 5.613281 12.09375 C 5.691406 10.984375 5.769531 9.878906 5.847656 8.773438 C 6.242188 3.476562 5.375 -1.816406 3.398438 -6.953125 L 2.925781 -8.140625 C 2.84375 -8.535156 3.003906 -8.773438 3.320312 -9.011719 C 3.871094 -9.324219 4.585938 -9.5625 5.296875 -9.722656 C 6.796875 -10.273438 8.0625 -10.828125 9.5625 -11.539062 C 11.066406 -12.328125 12.566406 -13.121094 14.066406 -13.910156 C 15.570312 -14.621094 17.070312 -15.410156 18.574219 -16.125 C 18.808594 -16.28125 19.125 -16.4375 19.363281 -16.597656 C 19.601562 -16.675781 19.917969 -16.835938 20.152344 -16.992188 C 20.550781 -17.230469 20.707031 -17.625 20.550781 -18.097656 C 20.46875 -18.574219 20.152344 -18.808594 19.601562 -18.808594 C 19.523438 -18.808594 19.523438 -18.808594 19.523438 -18.808594 C 19.441406 -18.730469 19.441406 -18.730469 19.363281 -18.730469 C 18.730469 -18.492188 18.097656 -18.257812 17.464844 -17.941406 L 8.929688 -13.59375 C 7.585938 -12.882812 6.164062 -12.171875 4.664062 -11.777344 L 4.425781 -11.777344 C 4.1875 -11.777344 4.03125 -11.777344 3.953125 -11.855469 C 3.554688 -12.09375 3.636719 -12.488281 3.871094 -12.804688 C 4.109375 -13.355469 4.425781 -13.910156 4.820312 -14.621094 C 5.53125 -15.808594 6.402344 -17.152344 7.269531 -18.574219 C 11.222656 -24.738281 19.441406 -38.804688 20.3125 -45.917969 C 20.550781 -46.867188 20.46875 -47.65625 19.523438 -48.210938 C 19.441406 -48.289062 19.285156 -48.289062 19.046875 -48.289062 C 17.230469 -48.289062 14.464844 -43.941406 12.722656 -40.859375 C 11.066406 -37.859375 8.695312 -32.878906 8.140625 -31.457031 C 2.6875 -17.863281 -1.738281 -3.871094 -2.371094 10.90625 C -2.449219 12.722656 -2.214844 14.542969 -1.976562 16.359375 C -1.738281 18.097656 -0.632812 21.496094 1.265625 21.496094 Z M 1.421875 18.96875 C 1.265625 18.96875 1.105469 18.890625 0.949219 18.652344 C 0.316406 17.464844 0.15625 16.359375 -0.078125 15.175781 C -0.472656 12.09375 -0.316406 8.929688 0.078125 5.847656 C 0.394531 2.449219 0.789062 -0.949219 1.738281 -4.109375 C 2.371094 -3.714844 2.527344 -3.242188 2.609375 -2.84375 C 3.242188 -0.632812 3.714844 1.582031 3.792969 4.03125 C 4.03125 7.585938 3.792969 11.222656 3.242188 14.78125 C 3.003906 16.28125 2.765625 17.464844 1.898438 18.652344 C 1.816406 18.890625 1.660156 18.96875 1.421875 18.96875 Z M 6.71875 -20.863281 L 6.71875 -21.023438 C 6.796875 -20.945312 6.875 -20.863281 6.953125 -20.863281 C 6.558594 -21.417969 6.71875 -21.972656 6.953125 -22.523438 C 9.40625 -29.558594 12.011719 -36.355469 16.042969 -42.679688 C 16.28125 -43.074219 16.597656 -43.546875 16.835938 -44.101562 C 17.070312 -44.574219 17.464844 -44.890625 18.097656 -45.050781 C 18.335938 -44.496094 18.335938 -43.941406 18.097656 -43.46875 C 17.863281 -42.996094 17.703125 -42.519531 17.546875 -42.046875 C 14.699219 -34.539062 11.144531 -27.582031 6.953125 -20.863281 Z M 6.71875 -20.863281 "/></g></g></g><g fill="#610f7f" fill-opacity="1"><g transform="translate(277.906689, 293.761176)"><g><path d="M 1.421875 5.613281 C 2.6875 5.613281 4.1875 4.503906 4.898438 3.554688 C 7.429688 0.632812 10.273438 -3.242188 12.882812 -6.796875 C 15.09375 -9.800781 18.019531 -13.832031 19.601562 -15.726562 C 19.757812 -15.886719 19.835938 -16.042969 19.835938 -16.203125 C 20.074219 -16.675781 19.996094 -17.070312 19.601562 -17.386719 C 19.363281 -17.464844 19.207031 -17.546875 19.046875 -17.546875 C 18.96875 -17.546875 18.96875 -17.546875 18.890625 -17.546875 C 18.808594 -17.464844 18.808594 -17.464844 18.730469 -17.464844 C 18.335938 -17.308594 18.019531 -17.070312 17.78125 -16.835938 C 17.546875 -16.519531 17.230469 -16.203125 16.992188 -15.886719 C 14.699219 -13.59375 7.746094 -3.160156 4.425781 1.027344 C 4.03125 1.5 3.636719 1.976562 3.242188 2.449219 C 2.84375 2.84375 2.371094 3.160156 1.660156 3.242188 C 0.472656 2.292969 0.871094 0.871094 0.949219 -0.316406 C 1.183594 -3.082031 1.5 -5.613281 2.132812 -8.21875 C 3.160156 -12.804688 7.269531 -25.371094 9.089844 -29.402344 C 9.484375 -30.429688 10.273438 -30.902344 11.382812 -30.980469 L 28.375 -32.484375 C 28.769531 -32.5625 29.085938 -32.5625 29.402344 -32.640625 C 29.71875 -32.640625 30.03125 -32.71875 30.429688 -32.800781 C 30.746094 -32.878906 30.902344 -33.195312 30.902344 -33.589844 C 30.824219 -34.144531 30.585938 -34.378906 30.269531 -34.378906 L 27.425781 -34.378906 C 25.210938 -34.144531 22.839844 -33.90625 20.234375 -33.746094 C 17.625 -33.511719 15.253906 -33.273438 13.039062 -33.035156 C 12.960938 -33.035156 12.804688 -33.035156 12.644531 -33.035156 C 12.488281 -32.957031 12.328125 -32.957031 12.171875 -32.957031 C 11.855469 -32.957031 11.539062 -33.035156 11.144531 -33.117188 C 11.144531 -33.511719 11.222656 -33.90625 11.382812 -34.222656 C 11.460938 -34.460938 11.617188 -34.773438 11.695312 -35.011719 C 12.722656 -37.144531 13.753906 -39.199219 14.621094 -41.335938 C 15.015625 -42.046875 15.09375 -42.679688 15.015625 -43.074219 C 14.859375 -43.46875 14.621094 -43.628906 14.304688 -43.628906 C 13.753906 -43.628906 13.199219 -43.152344 12.644531 -42.203125 C 12.25 -41.570312 11.855469 -40.941406 11.539062 -40.308594 C 11.144531 -39.675781 10.828125 -39.042969 10.433594 -38.410156 L 8.296875 -33.667969 C 7.902344 -32.800781 7.269531 -32.402344 6.324219 -32.324219 C 4.980469 -32.167969 3.554688 -32.007812 2.132812 -31.851562 C 0.710938 -31.691406 -0.710938 -31.535156 -2.132812 -31.296875 C -2.527344 -31.21875 -2.925781 -31.140625 -3.320312 -31.0625 C -3.636719 -30.980469 -3.953125 -30.824219 -4.347656 -30.746094 C -4.742188 -30.664062 -4.820312 -30.347656 -4.742188 -29.875 C -4.664062 -29.636719 -4.503906 -29.480469 -4.1875 -29.402344 C -3.953125 -29.320312 -3.714844 -29.320312 -3.320312 -29.320312 C -2.6875 -29.320312 -1.976562 -29.480469 -1.34375 -29.558594 C -0.316406 -29.636719 0.789062 -29.796875 1.898438 -29.953125 C 2.925781 -30.113281 4.03125 -30.269531 5.058594 -30.347656 L 5.691406 -30.347656 C 6.640625 -30.347656 6.71875 -29.953125 6.324219 -28.769531 C 5.769531 -27.425781 5.375 -26.160156 4.820312 -24.660156 C 2.214844 -17.546875 -1.105469 -6.71875 -1.105469 0.949219 C -1.105469 2.765625 -0.632812 5.613281 1.421875 5.613281 Z M 1.421875 5.613281 "/></g></g></g><path fill="#610f7f" d="M 364.902344 201.945312 C 363.648438 201.71875 362.238281 201.496094 360.742188 201.261719 C 349.511719 199.503906 330.714844 196.5625 318.945312 180.367188 C 311.910156 170.691406 304.921875 149.042969 294.945312 132.464844 C 294.148438 131.179688 292.464844 129.914062 290.171875 128.695312 C 270.980469 85.902344 279.859375 90.660156 269.941406 86.464844 C 266.652344 85.0625 263.945312 83.972656 261.328125 82.917969 C 249.011719 77.945312 250.59375 78.046875 247.125 78.5 C 242.976562 79.035156 233.992188 80.089844 228.039062 81.527344 C 226.015625 82.019531 225.070312 82.75 225.511719 85.378906 C 226.929688 94.074219 241.351562 92.460938 247.761719 93.195312 C 251.917969 97.046875 258.132812 100.03125 261.082031 101.789062 C 262.980469 111.507812 265.144531 117.679688 266.480469 121.011719 C 258.105469 119.101562 249.640625 117.671875 243.703125 116.980469 C 242.539062 116.84375 241.21875 116.691406 240.105469 116.929688 C 237.945312 117.359375 233.785156 122.339844 229.902344 127.628906 C 224.859375 126.503906 218.972656 129.355469 221.839844 134.820312 C 222.15625 135.433594 222.800781 136.394531 223.332031 137.113281 C 223.1875 137.335938 221.398438 140.050781 221.296875 140.292969 C 220.449219 142.359375 219.519531 154.792969 220.132812 161.949219 C 220.339844 164.46875 220.621094 166.460938 222.183594 167.28125 C 223.625 168.035156 225.265625 167.289062 226.535156 166.558594 C 232.582031 163.078125 234.128906 154.183594 235.148438 148.308594 C 235.164062 148.230469 235.179688 148.15625 235.191406 148.089844 C 236.632812 149.132812 238.1875 150.097656 239.183594 150.695312 C 236.652344 157.359375 234.933594 167.542969 234.832031 174.113281 C 234.78125 177.535156 239.800781 188.664062 241.867188 192.460938 C 242.371094 193.390625 243.5 193.414062 244.488281 192.855469 C 245.253906 195.476562 245.769531 196.507812 246.691406 196.910156 C 247.035156 197.0625 247.425781 197.074219 247.777344 196.941406 C 251.9375 195.414062 253.605469 190.738281 252.875 182.664062 C 253.390625 182.117188 253.894531 181.605469 254.425781 181.074219 C 255.792969 179.6875 257.210938 178.253906 259.109375 175.925781 C 259.292969 175.703125 259.402344 175.652344 260.742188 175.949219 L 260.992188 176.003906 C 261.074219 176.019531 261.171875 176.042969 261.273438 176.066406 C 262.714844 178.996094 263.855469 181.804688 265.050781 184.765625 C 269.054688 194.671875 273.199219 204.917969 289.019531 219.265625 C 303.292969 239.492188 331.9375 231.804688 351.953125 254.816406 C 352.238281 255.144531 352.644531 255.316406 353.054688 255.316406 C 353.394531 255.316406 353.734375 255.199219 354.011719 254.957031 C 354.617188 254.429688 354.683594 253.507812 354.152344 252.898438 C 331.375 226.707031 300.242188 239.085938 287.394531 210.410156 C 283.277344 201.230469 283.476562 197.78125 280.691406 181.84375 C 280.039062 178.082031 279.417969 174.527344 274.515625 174.578125 C 268.914062 174.648438 263.21875 173.5 261.613281 173.148438 L 261.371094 173.097656 C 260.039062 172.800781 258.21875 172.398438 256.847656 174.082031 C 255.035156 176.300781 253.667969 177.683594 252.347656 179.019531 C 251.648438 179.726562 250.988281 180.390625 250.28125 181.160156 C 249.996094 181.46875 249.859375 181.886719 249.902344 182.300781 C 250.523438 188.25 249.816406 192.050781 247.796875 193.628906 C 246.988281 191.410156 246.175781 187.539062 244.535156 182.152344 C 243.46875 178.648438 243.214844 177.816406 244.300781 175.242188 C 249.390625 163.183594 250.953125 162.460938 251.523438 161.546875 C 252.1875 160.808594 256.539062 159.9375 260.035156 159.242188 C 265.738281 158.101562 272.835938 156.683594 278.316406 153.949219 C 280.039062 153.085938 278.738281 150.472656 277.011719 151.335938 C 266.84375 156.414062 251.496094 156.472656 249.140625 159.859375 C 246.34375 163.171875 243.886719 168.710938 241.609375 174.109375 C 239.683594 178.6875 240.953125 179.632812 243.511719 189.296875 C 240.894531 184.039062 237.722656 176.058594 237.753906 174.15625 C 237.90625 164.101562 241.480469 149.714844 244.480469 147.046875 C 245.644531 146.199219 248.847656 145.539062 252.554688 144.773438 C 258.855469 143.472656 265.4375 141.988281 271.59375 139.09375 C 273.347656 138.269531 272.09375 135.632812 270.351562 136.449219 C 268.445312 137.347656 266.507812 138.082031 264.582031 138.726562 C 259.441406 138.621094 254.308594 137.058594 250.542969 135.90625 C 244.9375 134.191406 244.488281 134.171875 243.191406 135.863281 C 240.152344 139.804688 239.449219 140.617188 234.148438 144.738281 C 233.019531 145.605469 232.527344 146.402344 232.273438 147.800781 C 231.34375 153.148438 229.9375 161.230469 225.078125 164.027344 C 224.148438 164.566406 223.707031 164.660156 223.550781 164.671875 C 223.246094 164.183594 223.09375 162.335938 223.042969 161.707031 C 222.449219 154.78125 223.40625 143.273438 223.964844 141.5 C 232.132812 128.730469 239 120.292969 240.695312 119.789062 C 241.359375 119.648438 242.472656 119.777344 243.367188 119.882812 C 262.925781 122.15625 289.433594 129.125 292.457031 133.988281 C 302.34375 150.421875 309.269531 172.023438 316.585938 182.085938 C 329.066406 199.261719 348.613281 202.320312 360.292969 204.148438 C 361.769531 204.378906 363.164062 204.597656 364.378906 204.820312 C 364.46875 204.835938 364.554688 204.84375 364.644531 204.84375 C 365.335938 204.84375 365.949219 204.347656 366.078125 203.644531 C 366.21875 202.851562 365.695312 202.089844 364.902344 201.945312 Z M 274.546875 177.5 C 277.320312 177.464844 277.160156 177.761719 279.394531 191.808594 C 280.589844 199.3125 281.28125 203.621094 284.25 210.511719 C 274.332031 199.925781 270.996094 191.683594 267.757812 183.671875 C 266.839844 181.40625 265.902344 179.078125 264.816406 176.714844 C 267.460938 177.128906 271.007812 177.542969 274.546875 177.5 Z M 245.5625 137.570312 C 248.785156 138.261719 252.28125 139.6875 257.3125 140.753906 C 244.167969 143.816406 242.925781 142.902344 240.359375 147.996094 C 239.527344 147.492188 238.382812 146.769531 237.28125 145.992188 C 241.710938 142.492188 242.605469 141.398438 245.5625 137.570312 Z M 224.179688 131.535156 C 224.761719 130.675781 226.648438 130.273438 227.972656 130.308594 C 226.9375 131.769531 225.957031 133.199219 225.070312 134.511719 C 224.539062 133.71875 223.632812 132.339844 224.179688 131.535156 Z M 263.824219 100.609375 C 263.675781 99.824219 263.324219 99.667969 260.089844 97.878906 C 256.839844 96.082031 252.394531 93.625 249.433594 90.757812 C 247.515625 88.902344 229.136719 92.195312 228.332031 84.464844 C 233.480469 83.109375 243.265625 81.941406 247.503906 81.394531 C 250.144531 81.050781 248.457031 80.871094 260.238281 85.625 C 264.527344 87.355469 270.390625 89.792969 270.464844 89.824219 C 272.808594 90.742188 272.808594 90.742188 273.6875 93.625 C 278.289062 108.699219 282.167969 117.914062 286.144531 126.835938 C 281.640625 125 275.941406 123.304688 269.992188 121.84375 C 268.957031 119.46875 266.175781 112.882812 263.824219 100.609375 Z M 263.824219 100.609375 " fill-opacity="1" fill-rule="nonzero"/><path fill="#610f7f" d="M 151.664062 139.304688 C 152.191406 138.585938 152.828125 137.636719 153.144531 137.03125 C 155.957031 131.667969 150.355469 128.71875 145.109375 129.828125 C 136.496094 118.097656 135.117188 118.765625 131.546875 119.148438 C 126.808594 119.65625 117.734375 121.097656 108.5 123.207031 C 110.671875 117.761719 112.445312 111.445312 113.90625 103.996094 C 116.84375 102.226562 123.066406 99.238281 127.222656 95.386719 C 133.628906 94.65625 148.054688 96.265625 149.472656 87.578125 C 149.996094 84.453125 148.507812 84.140625 146.476562 83.621094 C 141.855469 82.4375 131.871094 81.226562 127.808594 80.699219 C 123.617188 80.152344 126.445312 80.203125 103.441406 89.308594 C 96.292969 92.136719 102.386719 91.699219 84.804688 130.898438 C 82.511719 132.121094 80.828125 133.386719 80.027344 134.675781 C 70.070312 151.222656 63.070312 172.902344 56.039062 182.5625 C 42.753906 200.84375 20.554688 202.230469 10.082031 204.136719 C 8.339844 204.453125 8.578125 207.035156 10.34375 207.035156 C 10.382812 207.035156 14.652344 206.347656 14.695312 206.339844 C 26.371094 204.511719 45.917969 201.453125 58.398438 184.277344 C 65.710938 174.234375 72.648438 152.601562 82.515625 136.199219 C 86.710938 129.449219 130.417969 121.113281 134.300781 122 C 135.980469 122.496094 142.84375 130.921875 151.027344 143.6875 C 152.015625 146.894531 152.660156 164.917969 151.433594 166.871094 C 151.277344 166.859375 150.835938 166.769531 149.902344 166.234375 C 145.046875 163.4375 143.640625 155.347656 142.707031 149.980469 C 141.980469 145.976562 139.113281 147.523438 132 138.328125 L 131.789062 138.054688 C 130.757812 136.730469 130.15625 136.628906 128.613281 136.964844 L 128.21875 137.050781 C 124.703125 137.804688 117.570312 140.777344 110.378906 140.921875 C 108.460938 140.28125 106.53125 139.546875 104.632812 138.660156 C 102.882812 137.839844 101.644531 140.484375 103.390625 141.300781 C 106.011719 142.53125 109.492188 143.757812 109.867188 143.828125 C 119.085938 146.835938 128.246094 147.597656 130.503906 149.242188 C 133.5 151.910156 137.078125 166.296875 137.230469 176.351562 C 137.261719 178.261719 134.085938 186.253906 131.464844 191.511719 C 134.121094 181.492188 135.257812 180.777344 133.375 176.316406 C 131.101562 170.921875 128.652344 165.382812 125.855469 162.070312 C 123.496094 158.675781 108.121094 158.597656 97.972656 153.53125 C 97.25 153.171875 96.375 153.464844 96.015625 154.183594 C 95.652344 154.90625 95.949219 155.78125 96.667969 156.144531 C 102.140625 158.875 109.230469 160.292969 114.925781 161.433594 C 121.238281 162.695312 122.949219 163.15625 123.578125 163.898438 C 126.339844 167.136719 128.953125 173.34375 130.683594 177.449219 C 131.882812 180.289062 131.441406 181.011719 130.09375 185.539062 C 128.914062 189.464844 127.945312 193.738281 127.1875 195.832031 C 125.164062 194.242188 124.460938 190.445312 125.09375 184.515625 C 125.253906 183.011719 123.097656 182.359375 118.132812 176.269531 C 115.570312 173.171875 112.523438 176.941406 100.46875 176.773438 C 95.355469 176.75 94.925781 180.429688 94.144531 184.890625 C 93.542969 188.277344 93.097656 191.082031 92.703125 193.550781 C 91.445312 201.457031 90.816406 205.421875 87.585938 212.609375 C 80.792969 227.804688 71.53125 230.585938 54.289062 235.894531 C 44.085938 239.039062 31.390625 242.953125 20.828125 255.09375 C 19.558594 256.550781 21.773438 258.457031 23.03125 257.007812 C 42.980469 234.078125 71.695312 241.683594 85.953125 221.480469 C 101.789062 207.113281 105.933594 196.867188 109.9375 186.957031 C 111.132812 183.996094 112.273438 181.1875 113.707031 178.257812 C 114.8125 178.023438 115.5625 177.746094 115.875 178.121094 C 118.515625 181.363281 120.253906 182.910156 122.121094 184.875 C 121.375 192.925781 123.039062 197.597656 127.199219 199.148438 C 129.09375 199.859375 129.945312 196.941406 130.5 195.050781 C 131.722656 195.753906 132.710938 195.417969 133.117188 194.671875 C 135.179688 190.875 140.203125 179.742188 140.152344 176.308594 C 140.050781 169.742188 138.335938 159.566406 135.804688 152.902344 C 136.804688 152.304688 138.355469 151.339844 139.792969 150.296875 C 140.605469 154.085938 141.679688 164.867188 148.449219 168.769531 C 149.71875 169.496094 151.363281 170.234375 152.800781 169.480469 C 154.363281 168.660156 154.644531 166.671875 154.851562 164.164062 C 155.460938 157.046875 154.539062 144.601562 153.703125 142.503906 C 153.605469 142.246094 151.816406 139.535156 151.664062 139.304688 Z M 101.296875 95.820312 C 102.175781 92.949219 102.175781 92.949219 104.515625 92.023438 C 128.285156 82.613281 123.980469 83.152344 128.207031 83.695312 C 133.488281 84.351562 141.785156 85.40625 146.652344 86.671875 C 145.796875 94.457031 127.539062 91.023438 125.550781 92.953125 C 121.472656 96.898438 114.589844 100.0625 111.800781 101.867188 C 111.464844 102.082031 111.234375 102.425781 111.15625 102.816406 C 108.796875 115.140625 106.019531 121.683594 104.992188 124.039062 C 99.042969 125.503906 93.339844 127.199219 88.839844 129.035156 C 92.941406 119.832031 96.6875 110.941406 101.296875 95.820312 Z M 150.804688 133.734375 C 151.355469 134.542969 150.449219 135.917969 149.925781 136.699219 C 149.035156 135.375 148.058594 133.953125 147.039062 132.511719 C 148.34375 132.484375 150.226562 132.886719 150.804688 133.734375 Z M 90.726562 212.722656 C 94.542969 203.890625 94.503906 199.816406 97.171875 184.535156 C 98.398438 177.441406 97.84375 180.84375 110.167969 178.90625 C 105.316406 189.507812 103.433594 199.15625 90.726562 212.722656 Z M 117.671875 142.949219 C 122.722656 141.886719 126.171875 140.472656 129.429688 139.773438 C 132.335938 143.507812 133.0625 144.511719 137.707031 148.199219 C 136.605469 148.976562 135.464844 149.695312 134.632812 150.199219 C 132.0625 145.097656 130.570312 145.949219 117.671875 142.949219 Z M 117.671875 142.949219 " fill-opacity="1" fill-rule="nonzero"/><path fill="#610f7f" d="M 185.484375 103.964844 C 174.882812 103.964844 166.257812 112.582031 166.257812 123.179688 C 166.257812 133.78125 174.882812 142.40625 185.484375 142.40625 C 196.078125 142.40625 204.699219 133.78125 204.699219 123.179688 C 204.699219 112.582031 196.078125 103.964844 185.484375 103.964844 Z M 185.484375 139.484375 C 176.492188 139.484375 169.175781 132.171875 169.175781 123.175781 C 169.175781 114.191406 176.492188 106.882812 185.484375 106.882812 C 194.46875 106.882812 201.78125 114.191406 201.78125 123.175781 C 201.78125 132.171875 194.46875 139.484375 185.484375 139.484375 Z M 185.484375 139.484375 " fill-opacity="1" fill-rule="nonzero"/><path fill="#610f7f" d="M 185.484375 111.039062 C 178.785156 111.039062 173.335938 116.484375 173.335938 123.179688 C 173.335938 129.878906 178.785156 135.328125 185.484375 135.328125 C 192.175781 135.328125 197.621094 129.878906 197.621094 123.179688 C 197.621094 116.484375 192.175781 111.039062 185.484375 111.039062 Z M 185.484375 132.410156 C 180.394531 132.410156 176.253906 128.265625 176.253906 123.175781 C 176.253906 118.09375 180.394531 113.960938 185.484375 113.960938 C 190.566406 113.960938 194.703125 118.09375 194.703125 123.175781 C 194.703125 128.269531 190.566406 132.410156 185.484375 132.410156 Z M 185.484375 132.410156 " fill-opacity="1" fill-rule="nonzero"/><path fill="#610f7f" d="M 211.605469 88.898438 C 206.789062 87.929688 205.71875 86.871094 204.746094 82.097656 C 204.703125 81.875 204.382812 81.875 204.328125 82.097656 C 203.351562 86.871094 202.28125 87.929688 197.46875 88.898438 C 197.246094 88.953125 197.246094 89.269531 197.46875 89.3125 C 202.28125 90.277344 203.351562 91.351562 204.328125 96.113281 C 204.382812 96.332031 204.703125 96.332031 204.746094 96.113281 C 205.71875 91.351562 206.789062 90.277344 211.605469 89.3125 C 211.828125 89.269531 211.828125 88.953125 211.605469 88.898438 Z M 211.605469 88.898438 " fill-opacity="1" fill-rule="nonzero"/><path fill="#610f7f" d="M 172.378906 82.761719 C 174.285156 78.703125 174.007812 78.980469 178.085938 77.105469 C 174.007812 75.214844 174.285156 75.488281 172.378906 71.433594 C 170.472656 75.488281 170.75 75.214844 166.675781 77.105469 C 170.75 78.980469 170.472656 78.703125 172.378906 82.761719 Z M 172.378906 82.761719 " fill-opacity="1" fill-rule="nonzero"/><path fill="#610f7f" d="M 192.832031 44.863281 C 196.226562 45.554688 196.980469 46.300781 197.675781 49.664062 C 197.703125 49.832031 197.9375 49.832031 197.964844 49.664062 C 198.664062 46.300781 199.414062 45.554688 202.808594 44.863281 C 202.976562 44.835938 202.976562 44.601562 202.808594 44.574219 C 199.414062 43.886719 198.664062 43.140625 197.964844 39.773438 C 197.9375 39.609375 197.703125 39.609375 197.675781 39.773438 C 196.976562 43.140625 196.226562 43.886719 192.832031 44.574219 C 192.664062 44.601562 192.664062 44.835938 192.832031 44.863281 Z M 192.832031 44.863281 " fill-opacity="1" fill-rule="nonzero"/></svg>